<mxfile host="app.diagrams.net" modified="2024-03-05T00:30:39.948Z" agent="Mozilla/5.0 (Macintosh; Intel Mac OS X 10_15_7) AppleWebKit/605.1.15 (KHTML, like Gecko) Version/17.1 Safari/605.1.15" version="24.0.1" etag="Js8ehUFP9BOGyZ2kUBym" type="github">
  <diagram name="ページ1" id="iNB7sugj4MV9LRQWi2q7">
    <mxGraphModel>
      <root>
        <mxCell id="0" />
        <mxCell id="1" parent="0" />
      </root>
    </mxGraphModel>
  </diagram>
</mxfile>
